<svg width="24" height="24" viewBox="0 0 24 24" fill="none" xmlns="http://www.w3.org/2000/svg">
  <path d="M6.5 18C4.01 18 2 15.99 2 13.5C2 11.42 3.39 9.67 5.28 9.15C5.66 6.83 7.65 5 10 5C11.05 5 12.03 5.37 12.82 5.99C13.72 4.76 15.09 4 16.5 4C18.99 4 21 6.01 21 8.5C21 8.83 20.97 9.16 20.9 9.47C21.58 10.26 22 11.29 22 12.5C22 14.99 19.99 17 17.5 17" stroke="currentColor" stroke-width="1.5" stroke-linecap="round" stroke-linejoin="round"/>
  <path d="M12 12V21M12 21L9 18M12 21L15 18" stroke="currentColor" stroke-width="1.5" stroke-linecap="round" stroke-linejoin="round"/>
</svg>
